<svg width="30" height="30" viewBox="0 0 30 30" fill="none" xmlns="http://www.w3.org/2000/svg">
<path d="M30 7.59358V22.4065C30.0011 23.4033 29.8056 24.3905 29.4248 25.3118C29.044 26.233 28.4854 27.0702 27.7807 27.7754C27.076 28.4806 26.2391 29.0401 25.3181 29.4218C24.397 29.8035 23.4097 30 22.4126 30H17.3128V19.2792H20.7737L21.4309 14.9959H17.3128V12.2179C17.2835 11.8975 17.3269 11.5746 17.4399 11.2732C17.5528 10.9719 17.7324 10.7 17.9651 10.4777C18.1978 10.2554 18.4777 10.0885 18.784 9.98951C19.0902 9.89048 19.4149 9.86185 19.7338 9.90575H21.5974V6.28779C20.4969 6.10832 19.3845 6.01102 18.2696 5.99669C14.8835 5.99669 12.6706 8.04271 12.6706 11.7605V15.0208H8.91017V19.3042H12.6706V30.025H7.57897C5.56448 30.025 3.63255 29.2249 2.20808 27.8009C0.783619 26.3768 -0.0166016 24.4453 -0.0166016 22.4314V7.59358C-0.0166016 5.57965 0.783619 3.64819 2.20808 2.22412C3.63255 0.800049 5.56448 1.8251e-05 7.57897 1.8251e-05H22.396C23.3945 -0.00217141 24.3836 0.192688 25.3066 0.573422C26.2296 0.954157 27.0684 1.51328 27.7748 2.21873C28.4812 2.92419 29.0414 3.7621 29.4233 4.68443C29.8051 5.60676 30.0011 6.59537 30 7.59358V7.59358Z" fill="white"/>
</svg>
