<svg width="30" height="30" viewBox="0 0 30 30" fill="none" xmlns="http://www.w3.org/2000/svg">
<path d="M22.4064 4.56151e-06H7.59357C6.59676 -0.00108873 5.6095 0.194358 4.68825 0.575169C3.76701 0.955979 2.92981 1.51469 2.22458 2.21935C1.51934 2.92401 0.959916 3.7608 0.578201 4.68188C0.196487 5.60297 -5.99228e-07 6.59027 0 7.58736V22.4043C0 24.4188 0.799999 26.3508 2.22407 27.7753C3.64814 29.1998 5.57963 30 7.59357 30H22.4064C24.4203 30 26.3518 29.1998 27.7759 27.7753C29.2 26.3508 30 24.4188 30 22.4043V7.58736C30 6.59027 29.8035 5.60297 29.4218 4.68188C29.04 3.7608 28.4806 2.92401 27.7754 2.21935C27.0701 1.51469 26.2329 0.955979 25.3117 0.575169C24.3905 0.194358 23.4032 -0.00108873 22.4064 4.56151e-06V4.56151e-06ZM14.9959 6.14809C15.8276 6.14809 17.491 8.90183 17.6656 13.985H12.3343C12.5256 8.90183 14.1392 6.14809 14.9959 6.14809V6.14809ZM12.642 5.41598C11.2281 7.18802 10.438 10.5241 10.305 13.985H5.1899C5.39937 11.9632 6.22746 10.0553 7.56118 8.52165C8.89491 6.98804 10.6692 5.90347 12.642 5.41598V5.41598ZM5.1566 16.015H10.28C10.4131 19.4676 11.2033 22.812 12.6172 24.584C10.649 24.0921 8.88007 23.0056 7.55113 21.4723C6.22219 19.9391 5.39771 18.0336 5.1899 16.015H5.1566ZM14.9626 23.8519C14.1308 23.8519 12.4675 21.0899 12.3011 16.015H17.6323C17.4743 21.0899 15.8609 23.8519 14.9959 23.8519H14.9626ZM17.3246 24.584C18.7385 22.812 19.5287 19.4676 19.6618 16.015H24.7769C24.5696 18.0325 23.7463 19.9372 22.419 21.4703C21.0916 23.0035 19.3246 24.0906 17.3579 24.584H17.3246ZM19.6618 13.985C19.5287 10.5241 18.7385 7.18802 17.3246 5.41598C19.3036 5.89752 21.0853 6.9795 22.4254 8.5136C23.7655 10.0477 24.5984 11.9588 24.8101 13.985H19.6618Z" fill="white"/>
</svg>
