<svg width="29" height="30" viewBox="0 0 29 30" fill="none" xmlns="http://www.w3.org/2000/svg">
<path d="M21.6656 0H7.34249C6.37826 0 5.42347 0.196469 4.53264 0.578187C3.64181 0.959905 2.83244 1.5194 2.15063 2.22472C1.46881 2.93004 0.927979 3.76739 0.558984 4.68894C0.18999 5.61049 0 6.59819 0 7.59567V22.4126C-5.79414e-07 23.4097 0.18999 24.397 0.559083 25.3181C0.928176 26.2392 1.4692 27.076 2.15112 27.7807C2.83304 28.4853 3.64245 29.044 4.53323 29.4248C5.42402 29.8056 6.37864 30.0011 7.34249 30H21.6656C23.6108 30 25.4764 29.2006 26.8519 27.7777C28.2273 26.3548 29 24.4249 29 22.4126V7.59567C29.0011 6.59859 28.8121 5.61106 28.444 4.68956C28.0759 3.76806 27.5359 2.93066 26.8547 2.22523C26.1735 1.51979 25.3646 0.960167 24.4742 0.578347C23.5838 0.196527 22.6295 -5.99394e-07 21.6656 0V0ZM22.8961 18.5025C22.8961 19.8859 22.3647 21.2127 21.4191 22.191C20.4735 23.1692 19.191 23.7188 17.8536 23.7188H11.1464C9.80907 23.7188 8.52658 23.1692 7.58094 22.191C6.63531 21.2127 6.10406 19.8859 6.10406 18.5025V11.5641C6.10406 10.1806 6.63531 8.85382 7.58094 7.87557C8.52658 6.89733 9.80907 6.34775 11.1464 6.34775H17.8536C19.191 6.34775 20.4735 6.89733 21.4191 7.87557C22.3647 8.85382 22.8961 10.1806 22.8961 11.5641V18.5025Z" fill="white"/>
</svg>
