<svg width="356" height="323" viewBox="0 0 356 323" fill="none" xmlns="http://www.w3.org/2000/svg">
<mask id="path-1-inside-1_2_73" fill="white">
<path d="M-77.2211 433.782C-176.865 334.599 -177.765 173.992 -79.2557 74.9768C-41.0547 36.8147 8.30465 11.8176 61.6335 3.62616C114.962 -4.56528 169.475 4.4768 217.233 29.4354C235.65 39.1004 237.814 58.1242 230.621 71.706C228.837 75.4414 226.301 78.7701 223.174 81.4839C220.046 84.1977 216.394 86.2382 212.445 87.4779C208.497 88.7175 204.336 89.1295 200.225 88.6882C196.113 88.2469 192.139 86.9617 188.551 84.9131C152.614 66.1407 111.598 59.3422 71.473 65.5075C31.3483 71.6727 -5.78985 90.4798 -34.535 119.191C-108.723 193.746 -108.099 314.598 -33.0907 389.238C41.9181 463.878 162.886 463.926 237.05 389.348C265.608 360.495 284.228 323.298 290.199 283.176C296.17 243.055 289.18 202.103 270.247 166.287C268.067 162.625 266.66 158.555 266.111 154.326C265.562 150.098 265.884 145.799 267.057 141.696C268.229 137.592 270.228 133.769 272.929 130.462C275.631 127.155 278.978 124.434 282.767 122.465C286.555 120.496 290.704 119.322 294.959 119.013C299.214 118.705 303.485 119.27 307.51 120.672C311.535 122.075 315.229 124.286 318.365 127.17C321.501 130.054 324.014 133.55 325.747 137.443C350.951 185.072 360.252 239.546 352.29 292.91C344.329 346.274 319.523 395.734 281.494 434.068C182.984 533.13 22.1698 533.081 -77.4051 433.828"/>
</mask>
<path d="M-79.2557 74.9768L-81.3759 72.8544L-81.3824 72.8609L-79.2557 74.9768ZM217.233 29.4354L218.627 26.779L218.622 26.7766L217.233 29.4354ZM230.621 71.706L227.97 70.302L227.941 70.3568L227.914 70.4129L230.621 71.706ZM188.551 84.9131L190.038 82.3077L189.989 82.28L189.94 82.254L188.551 84.9131ZM-34.535 119.191L-36.655 117.068L-36.6615 117.075L-34.535 119.191ZM237.05 389.348L239.178 391.464L239.183 391.458L237.05 389.348ZM270.247 166.287L272.899 164.885L272.863 164.818L272.824 164.752L270.247 166.287ZM325.747 137.443L323.007 138.664L323.048 138.757L323.096 138.846L325.747 137.443ZM281.494 434.068L283.622 436.184L283.624 436.181L281.494 434.068ZM-75.1047 431.656C-173.588 333.628 -174.458 174.921 -77.1289 77.0927L-81.3824 72.8609C-181.073 173.064 -180.143 335.569 -79.3375 435.908L-75.1047 431.656ZM-77.1354 77.0992C-39.3852 39.3875 9.39106 14.6859 62.089 6.59138L61.178 0.660933C7.21826 8.9493 -42.724 34.2419 -81.3759 72.8544L-77.1354 77.0992ZM62.089 6.59138C114.787 -1.50312 168.653 7.43214 215.843 32.0942L218.622 26.7766C170.297 1.52146 115.138 -7.62745 61.178 0.660933L62.089 6.59138ZM215.839 32.0919C232.532 40.8521 234.526 57.9225 227.97 70.302L233.272 73.1102C241.102 58.3259 238.768 37.3486 218.627 26.779L215.839 32.0919ZM227.914 70.4129C226.307 73.7765 224.024 76.7741 221.208 79.218L225.14 83.7498C228.578 80.7661 231.366 77.1064 233.328 72.9993L227.914 70.4129ZM221.208 79.218C218.391 81.662 215.102 83.4994 211.547 84.6156L213.344 90.3401C217.686 88.9771 221.702 86.7334 225.14 83.7498L221.208 79.218ZM211.547 84.6156C207.991 85.7317 204.246 86.1026 200.545 85.7054L199.905 91.6711C204.427 92.1565 209.002 91.7032 213.344 90.3401L211.547 84.6156ZM200.545 85.7054C196.844 85.3081 193.267 84.1513 190.038 82.3077L187.063 87.5184C191.011 89.7721 195.383 91.1857 199.905 91.6711L200.545 85.7054ZM189.94 82.254C153.436 63.1853 111.773 56.2801 71.0174 62.5423L71.9286 68.4727C111.422 62.4044 151.792 69.0961 187.161 87.5721L189.94 82.254ZM71.0174 62.5423C30.2619 68.8045 -7.45911 87.907 -36.655 117.068L-32.4149 121.313C-4.12056 93.0527 32.4347 74.541 71.9286 68.4727L71.0174 62.5423ZM-36.6615 117.075C-112.029 192.816 -111.379 315.567 -35.2068 391.365L-30.9746 387.112C-104.82 313.629 -105.416 194.676 -32.4084 121.307L-36.6615 117.075ZM-35.2068 391.365C40.9646 467.162 163.832 467.229 239.178 391.463L234.923 387.233C161.939 460.624 42.8717 460.595 -30.9746 387.112L-35.2068 391.365ZM239.183 391.458C268.188 362.152 287.101 324.371 293.166 283.618L287.232 282.735C281.355 322.225 263.027 358.837 234.918 387.238L239.183 391.458ZM293.166 283.618C299.231 242.865 292.131 201.267 272.899 164.885L267.594 167.689C286.228 202.939 293.109 243.245 287.232 282.735L293.166 283.618ZM272.824 164.752C270.854 161.443 269.582 157.764 269.086 153.94L263.136 154.712C263.737 159.347 265.28 163.808 267.669 167.821L272.824 164.752ZM269.086 153.94C268.59 150.117 268.881 146.231 269.941 142.52L264.172 140.872C262.888 145.368 262.535 150.078 263.136 154.712L269.086 153.94ZM269.941 142.52C271.002 138.809 272.809 135.351 275.252 132.36L270.606 128.564C267.646 132.187 265.457 136.375 264.172 140.872L269.941 142.52ZM275.252 132.36C277.696 129.369 280.724 126.908 284.15 125.127L281.383 119.803C277.233 121.96 273.565 124.942 270.606 128.564L275.252 132.36ZM284.15 125.127C287.576 123.347 291.328 122.284 295.176 122.006L294.742 116.021C290.079 116.359 285.533 117.646 281.383 119.803L284.15 125.127ZM295.176 122.006C299.023 121.727 302.884 122.237 306.523 123.505L308.497 117.839C304.086 116.302 299.405 115.683 294.742 116.021L295.176 122.006ZM306.523 123.505C310.161 124.773 313.5 126.772 316.335 129.378L320.396 124.962C316.958 121.801 312.909 119.377 308.497 117.839L306.523 123.505ZM316.335 129.378C319.169 131.985 321.44 135.145 323.007 138.664L328.488 136.223C326.587 131.955 323.834 128.123 320.396 124.962L316.335 129.378ZM323.096 138.846C348 185.909 357.19 239.735 349.323 292.467L355.257 293.352C363.313 239.356 353.903 184.236 328.399 136.04L323.096 138.846ZM349.323 292.467C341.456 345.199 316.944 394.074 279.365 431.956L283.624 436.181C322.102 397.393 347.202 347.348 355.257 293.352L349.323 292.467ZM279.367 431.953C182.038 529.828 23.1243 529.797 -75.2873 431.704L-79.523 435.953C21.2153 536.365 183.931 536.432 283.622 436.184L279.367 431.953Z" fill="white" mask="url(#path-1-inside-1_2_73)"/>
</svg>
