<svg width="158" height="158" viewBox="0 0 158 158" fill="none" xmlns="http://www.w3.org/2000/svg">
<mask id="path-1-inside-1_2_72" fill="white">
<path d="M134.516 23.6892C165.41 54.4406 165.689 104.236 135.147 134.935C123.303 146.767 107.999 154.517 91.4649 157.057C74.9306 159.597 58.0291 156.793 43.2221 149.055C37.5119 146.058 36.8409 140.16 39.0712 135.949C39.6244 134.791 40.4105 133.759 41.3801 132.918C42.3498 132.076 43.4822 131.443 44.7065 131.059C45.9307 130.675 47.2206 130.547 48.4954 130.684C49.7701 130.821 51.0023 131.219 52.1149 131.854C63.2569 137.675 75.9738 139.782 88.4142 137.871C100.855 135.959 112.369 130.128 121.281 121.227C144.283 98.1113 144.09 60.6418 120.834 37.4999C97.5775 14.358 60.0721 14.3432 37.0778 37.4658C28.2237 46.4117 22.4506 57.9442 20.5993 70.3838C18.7481 82.8234 20.9153 95.5202 26.7854 106.625C27.4613 107.76 27.8976 109.022 28.0677 110.333C28.2378 111.644 28.138 112.977 27.7745 114.249C27.4109 115.522 26.7914 116.707 25.9538 117.732C25.1162 118.757 24.0783 119.601 22.9037 120.212C21.7292 120.822 20.4428 121.186 19.1236 121.282C17.8043 121.377 16.4801 121.202 15.2321 120.767C13.9842 120.332 12.8389 119.647 11.8665 118.753C10.8942 117.859 10.1153 116.775 9.57768 115.568C1.76336 100.8 -1.12013 83.9113 1.34824 67.3661C3.8166 50.8209 11.5075 35.486 23.2982 23.6005C53.8406 -7.11301 103.7 -7.09782 134.573 23.6749"/>
</mask>
<path d="M135.147 134.935L137.267 137.057L137.274 137.051L135.147 134.935ZM43.2221 149.055L41.828 151.711L41.8326 151.714L43.2221 149.055ZM39.0712 135.949L41.7223 137.353L41.7513 137.298L41.7781 137.242L39.0712 135.949ZM52.1149 131.854L50.6276 134.46L50.6762 134.487L50.7259 134.513L52.1149 131.854ZM121.281 121.227L123.402 123.349L123.408 123.343L121.281 121.227ZM37.0778 37.4658L34.9506 35.3504L34.9456 35.3554L37.0778 37.4658ZM26.7854 106.625L24.1332 108.027L24.1687 108.094L24.2077 108.159L26.7854 106.625ZM28.0677 110.333L31.0428 109.947L28.0677 110.333ZM15.2321 120.767L16.2194 117.934L15.2321 120.767ZM9.57768 115.568L12.3182 114.347L12.2768 114.254L12.2293 114.164L9.57768 115.568ZM23.2982 23.6005L21.1709 21.4851L21.1683 21.4877L23.2982 23.6005ZM132.4 25.8155C162.133 55.411 162.381 103.307 133.02 132.819L137.274 137.051C168.997 105.164 168.688 53.4701 136.632 21.563L132.4 25.8155ZM133.027 132.813C121.633 144.194 106.913 151.649 91.0094 154.092L91.9204 160.022C109.086 157.386 124.972 149.34 137.267 137.057L133.027 132.813ZM91.0094 154.092C75.1062 156.535 58.8512 153.838 44.6116 146.396L41.8326 151.714C57.207 159.749 74.755 162.659 91.9204 160.022L91.0094 154.092ZM44.6161 146.398C40.6298 144.307 40.1289 140.362 41.7223 137.353L36.42 134.545C33.553 139.958 34.3939 147.81 41.828 151.711L44.6161 146.398ZM41.7781 137.242C42.1538 136.456 42.6877 135.755 43.3463 135.183L39.414 130.652C38.1333 131.763 37.0951 133.126 36.3642 134.656L41.7781 137.242ZM43.3463 135.183C44.005 134.612 44.7739 134.182 45.605 133.921L43.8079 128.197C42.1904 128.705 40.6946 129.54 39.414 130.652L43.3463 135.183ZM45.605 133.921C46.436 133.661 47.311 133.574 48.1752 133.667L48.8155 127.701C47.1302 127.52 45.4255 127.689 43.8079 128.197L45.605 133.921ZM48.1752 133.667C49.0393 133.76 49.8741 134.03 50.6276 134.46L53.6023 129.249C52.1305 128.409 50.5009 127.882 48.8155 127.701L48.1752 133.667ZM50.7259 134.513C62.4352 140.63 75.7985 142.845 88.8698 140.836L87.9586 134.906C76.1491 136.72 64.0786 134.719 53.5039 129.195L50.7259 134.513ZM88.8698 140.836C101.941 138.828 114.038 132.701 123.402 123.349L119.161 119.104C110.7 127.556 99.7682 133.091 87.9586 134.906L88.8698 140.836ZM123.408 123.343C147.589 99.0416 147.369 59.6726 122.95 35.3734L118.718 39.6264C140.811 61.6109 140.976 97.1809 119.155 119.111L123.408 123.343ZM122.95 35.3734C98.5311 11.0746 59.1256 11.0406 34.9506 35.3504L39.205 39.5812C61.0187 17.6458 96.624 17.6414 118.718 39.6264L122.95 35.3734ZM34.9456 35.3554C25.6432 44.7542 19.5773 56.8712 17.632 69.9422L23.5667 70.8254C25.324 59.0173 30.8042 48.0691 39.21 39.5762L34.9456 35.3554ZM17.632 69.9422C15.6868 83.0133 17.9639 96.3561 24.1332 108.027L29.4377 105.223C23.8668 94.6842 21.8094 82.6334 23.5667 70.8254L17.632 69.9422ZM24.2077 108.159C24.6739 108.943 24.9752 109.814 25.0926 110.719L31.0428 109.947C30.8201 108.23 30.2486 106.578 29.3632 105.09L24.2077 108.159ZM25.0926 110.719C25.2101 111.624 25.1412 112.545 24.8899 113.425L30.659 115.073C31.1347 113.408 31.2655 111.664 31.0428 109.947L25.0926 110.719ZM24.8899 113.425C24.6385 114.305 24.21 115.125 23.6305 115.834L28.2771 119.63C29.3727 118.289 30.1834 116.738 30.659 115.073L24.8899 113.425ZM23.6305 115.834C23.0509 116.544 22.3328 117.127 21.5203 117.55L24.2871 122.873C25.8237 122.075 27.1815 120.971 28.2771 119.63L23.6305 115.834ZM21.5203 117.55C20.7078 117.972 19.8184 118.223 18.9068 118.29L19.3404 124.274C21.0672 124.149 22.7505 123.672 24.2871 122.873L21.5203 117.55ZM18.9068 118.29C17.9952 118.356 17.0807 118.235 16.2194 117.934L14.2449 123.6C15.8795 124.17 17.6135 124.399 19.3404 124.274L18.9068 118.29ZM16.2194 117.934C15.3581 117.634 14.5679 117.161 13.8972 116.544L9.83587 120.961C11.1099 122.133 12.6103 123.031 14.2449 123.6L16.2194 117.934ZM13.8972 116.544C13.2265 115.928 12.6891 115.18 12.3182 114.347L6.8372 116.788C7.54144 118.369 8.56185 119.789 9.83587 120.961L13.8972 116.544ZM12.2293 114.164C4.71483 99.9639 1.94137 83.7217 4.3154 67.8087L-1.61892 66.9234C-4.18162 84.101 -1.18811 101.637 6.92605 116.971L12.2293 114.164ZM4.3154 67.8087C6.68945 51.8957 14.0867 37.1458 25.428 25.7133L21.1683 21.4877C8.92835 33.8262 0.943756 49.746 -1.61892 66.9234L4.3154 67.8087ZM25.4254 25.7159C54.7876 -3.81074 102.746 -3.81348 132.455 25.7997L136.691 21.5501C104.655 -10.3822 52.8937 -10.4153 21.1709 21.4851L25.4254 25.7159Z" fill="white" mask="url(#path-1-inside-1_2_72)"/>
</svg>
