<svg width="159" height="159" viewBox="0 0 159 159" fill="none" xmlns="http://www.w3.org/2000/svg">
<path d="M135.365 135.1C104.491 166.117 54.4984 166.397 23.6773 135.733C11.7983 123.842 4.01734 108.478 1.46754 91.8781C-1.08225 75.2781 1.73234 58.3095 9.50136 43.4437C12.5098 37.7109 18.4315 37.0372 22.6592 39.2763C23.8219 39.8318 24.8581 40.621 25.7028 41.5945C26.5475 42.5679 27.1827 43.7048 27.5686 44.934C27.9544 46.1631 28.0827 47.4581 27.9453 48.7379C27.808 50.0177 27.4079 51.2548 26.7702 52.3719C20.9268 63.5581 18.8106 76.3255 20.7297 88.8153C22.6488 101.305 28.503 112.865 37.44 121.813C60.6473 144.906 98.2656 144.712 121.499 121.363C144.733 98.015 144.748 60.3607 121.534 37.275C112.552 28.3858 100.974 22.5898 88.4848 20.7311C75.9959 18.8725 63.2487 21.0484 52.0999 26.9418C50.9602 27.6203 49.6932 28.0584 48.3769 28.2291C47.0606 28.3999 45.7227 28.2997 44.4453 27.9348C43.1679 27.5698 41.978 26.9478 40.9486 26.1069C39.9192 25.2659 39.0721 24.2239 38.4593 23.0447C37.8465 21.8655 37.4808 20.574 37.3849 19.2495C37.2889 17.9251 37.4646 16.5955 37.9012 15.3426C38.3379 14.0898 39.0261 12.9399 39.9239 11.9637C40.8216 10.9874 41.9097 10.2055 43.1216 9.66573C57.9474 1.82038 74.9036 -1.07455 91.5145 1.40361C108.125 3.88178 123.521 11.6032 135.454 23.4407C166.289 54.1044 166.274 104.162 135.379 135.157" fill="#FFCB05"/>
</svg>
