<svg width="381" height="390" viewBox="0 0 381 390" fill="none" xmlns="http://www.w3.org/2000/svg">
<g filter="url(#filter0_d_2_76)">
<path d="M370.367 184.528C370.603 286.725 288.764 369.74 187.545 370C148.413 369.98 110.31 357.458 78.7852 334.257C47.2599 311.056 23.959 278.389 12.2759 241.013C7.79093 226.579 16.4304 215.688 27.0764 212.404C29.905 211.401 32.9099 210.994 35.9031 211.206C38.8964 211.419 41.8136 212.247 44.4723 213.64C47.1311 215.032 49.4741 216.959 51.3548 219.299C53.2356 221.639 54.6136 224.343 55.4026 227.24C64.1982 255.361 81.7327 279.937 105.453 297.393C129.174 314.848 157.842 324.27 187.285 324.288C263.506 324.099 325.116 261.66 324.927 184.741C324.738 107.821 262.774 45.6187 186.553 45.8313C157.134 45.9834 128.531 55.5317 104.912 73.0852C81.292 90.6388 63.889 115.281 55.2374 143.422C54.4781 146.424 53.1136 149.24 51.2277 151.695C49.3418 154.151 46.9744 156.195 44.2707 157.702C41.5669 159.208 38.584 160.146 35.5051 160.457C32.4261 160.768 29.3161 160.446 26.366 159.511C23.4158 158.576 20.6878 157.047 18.3494 155.019C16.0111 152.99 14.1117 150.504 12.7679 147.715C11.4241 144.925 10.6642 141.889 10.535 138.795C10.4057 135.701 10.9098 132.613 12.0163 129.72C23.5078 92.284 46.6561 59.5044 78.0814 36.1674C109.507 12.8304 147.563 0.158086 186.695 0.000726795C287.938 -0.282761 370.32 82.4013 370.485 184.599" fill="white"/>
</g>
<path d="M113.521 139.272V147.432H124.513V153.432H113.521V161.76H127.873V168H105.361V133.032H127.873V139.272H113.521ZM155.82 168H148.668C148.14 168 147.708 167.872 147.372 167.616C147.052 167.36 146.796 167.056 146.604 166.704L142.164 159.072C142.084 159.344 141.988 159.6 141.876 159.84C141.764 160.08 141.644 160.304 141.516 160.512L137.868 166.704C137.644 167.024 137.38 167.32 137.076 167.592C136.772 167.864 136.38 168 135.9 168H129.276L137.628 155.136L129.612 143.112H136.764C137.292 143.112 137.676 143.184 137.916 143.328C138.172 143.456 138.396 143.68 138.588 144L143.028 151.368C143.124 151.08 143.244 150.8 143.388 150.528C143.532 150.24 143.692 149.952 143.868 149.664L147.036 144.12C147.26 143.768 147.492 143.512 147.732 143.352C147.988 143.192 148.3 143.112 148.668 143.112H155.484L147.468 154.8L155.82 168ZM165.562 161.232C166.122 161.84 166.73 162.272 167.386 162.528C168.042 162.784 168.73 162.912 169.45 162.912C170.138 162.912 170.77 162.776 171.346 162.504C171.922 162.232 172.418 161.8 172.834 161.208C173.266 160.6 173.602 159.816 173.842 158.856C174.082 157.896 174.202 156.728 174.202 155.352C174.202 154.04 174.106 152.936 173.914 152.04C173.722 151.144 173.45 150.424 173.098 149.88C172.762 149.32 172.354 148.92 171.874 148.68C171.394 148.44 170.858 148.32 170.266 148.32C169.178 148.32 168.282 148.52 167.578 148.92C166.874 149.32 166.202 149.904 165.562 150.672V161.232ZM165.106 146.184C166.082 145.144 167.186 144.296 168.418 143.64C169.666 142.968 171.146 142.632 172.858 142.632C174.154 142.632 175.354 142.92 176.458 143.496C177.562 144.072 178.514 144.904 179.314 145.992C180.114 147.08 180.738 148.416 181.186 150C181.65 151.568 181.882 153.352 181.882 155.352C181.882 157.224 181.618 158.952 181.09 160.536C180.578 162.12 179.85 163.496 178.906 164.664C177.978 165.832 176.858 166.744 175.546 167.4C174.25 168.056 172.81 168.384 171.226 168.384C169.93 168.384 168.842 168.2 167.962 167.832C167.082 167.464 166.282 166.968 165.562 166.344V175.896H158.122V143.112H162.73C163.658 143.112 164.266 143.528 164.554 144.36L165.106 146.184ZM193.171 132.072V168H185.731V132.072H193.171ZM209.672 142.728C211.56 142.728 213.28 143.024 214.832 143.616C216.384 144.208 217.712 145.056 218.816 146.16C219.936 147.264 220.8 148.608 221.408 150.192C222.032 151.76 222.344 153.528 222.344 155.496C222.344 157.48 222.032 159.272 221.408 160.872C220.8 162.456 219.936 163.808 218.816 164.928C217.712 166.032 216.384 166.888 214.832 167.496C213.28 168.088 211.56 168.384 209.672 168.384C207.768 168.384 206.032 168.088 204.464 167.496C202.912 166.888 201.568 166.032 200.432 164.928C199.312 163.808 198.44 162.456 197.816 160.872C197.208 159.272 196.904 157.48 196.904 155.496C196.904 153.528 197.208 151.76 197.816 150.192C198.44 148.608 199.312 147.264 200.432 146.16C201.568 145.056 202.912 144.208 204.464 143.616C206.032 143.024 207.768 142.728 209.672 142.728ZM209.672 162.864C211.384 162.864 212.64 162.264 213.44 161.064C214.256 159.848 214.664 158.008 214.664 155.544C214.664 153.08 214.256 151.248 213.44 150.048C212.64 148.848 211.384 148.248 209.672 148.248C207.912 148.248 206.624 148.848 205.808 150.048C204.992 151.248 204.584 153.08 204.584 155.544C204.584 158.008 204.992 159.848 205.808 161.064C206.624 162.264 207.912 162.864 209.672 162.864ZM233.05 146.952C233.818 145.608 234.698 144.552 235.69 143.784C236.698 143.016 237.85 142.632 239.146 142.632C240.266 142.632 241.178 142.896 241.882 143.424L241.402 148.896C241.322 149.248 241.186 149.488 240.994 149.616C240.818 149.744 240.57 149.808 240.25 149.808C240.122 149.808 239.954 149.8 239.746 149.784C239.538 149.768 239.322 149.752 239.098 149.736C238.874 149.704 238.642 149.68 238.402 149.664C238.178 149.632 237.97 149.616 237.778 149.616C236.69 149.616 235.818 149.904 235.162 150.48C234.522 151.056 233.978 151.856 233.53 152.88V168H226.09V143.112H230.506C230.874 143.112 231.178 143.144 231.418 143.208C231.674 143.272 231.882 143.376 232.042 143.52C232.218 143.648 232.346 143.824 232.426 144.048C232.522 144.272 232.602 144.544 232.666 144.864L233.05 146.952ZM259.477 152.568C259.477 151.976 259.397 151.4 259.237 150.84C259.093 150.28 258.845 149.784 258.493 149.352C258.157 148.904 257.709 148.544 257.149 148.272C256.589 148 255.909 147.864 255.109 147.864C253.701 147.864 252.597 148.272 251.797 149.088C250.997 149.888 250.469 151.048 250.213 152.568H259.477ZM250.117 156.888C250.357 158.968 250.989 160.48 252.013 161.424C253.037 162.352 254.357 162.816 255.973 162.816C256.837 162.816 257.581 162.712 258.205 162.504C258.829 162.296 259.381 162.064 259.861 161.808C260.357 161.552 260.805 161.32 261.205 161.112C261.621 160.904 262.053 160.8 262.501 160.8C263.093 160.8 263.541 161.016 263.845 161.448L266.005 164.112C265.237 164.992 264.405 165.712 263.509 166.272C262.629 166.816 261.717 167.248 260.773 167.568C259.845 167.872 258.909 168.08 257.965 168.192C257.037 168.32 256.149 168.384 255.301 168.384C253.557 168.384 251.917 168.104 250.381 167.544C248.861 166.968 247.525 166.12 246.373 165C245.237 163.88 244.333 162.488 243.661 160.824C243.005 159.16 242.677 157.224 242.677 155.016C242.677 153.352 242.957 151.776 243.517 150.288C244.093 148.8 244.909 147.496 245.965 146.376C247.037 145.256 248.325 144.368 249.829 143.712C251.349 143.056 253.061 142.728 254.965 142.728C256.613 142.728 258.117 142.984 259.477 143.496C260.853 144.008 262.029 144.752 263.005 145.728C263.997 146.704 264.765 147.904 265.309 149.328C265.869 150.736 266.149 152.336 266.149 154.128C266.149 154.688 266.125 155.144 266.077 155.496C266.029 155.848 265.941 156.128 265.813 156.336C265.685 156.544 265.509 156.688 265.285 156.768C265.077 156.848 264.805 156.888 264.469 156.888H250.117ZM174.215 191.608V226H170.135V200.728C170.135 200.392 170.143 200.032 170.159 199.648C170.191 199.264 170.223 198.872 170.255 198.472L158.447 219.976C158.079 220.696 157.519 221.056 156.767 221.056H156.095C155.343 221.056 154.783 220.696 154.415 219.976L142.367 198.376C142.463 199.224 142.511 200.008 142.511 200.728V226H138.431V191.608H141.863C142.279 191.608 142.599 191.648 142.823 191.728C143.047 191.808 143.263 192.032 143.471 192.4L155.351 213.568C155.543 213.952 155.727 214.352 155.903 214.768C156.095 215.184 156.271 215.608 156.431 216.04C156.591 215.608 156.759 215.184 156.935 214.768C157.111 214.336 157.303 213.928 157.511 213.544L169.175 192.4C169.367 192.032 169.575 191.808 169.799 191.728C170.039 191.648 170.367 191.608 170.783 191.608H174.215ZM191.499 201.304C193.275 201.304 194.875 201.6 196.299 202.192C197.723 202.784 198.939 203.624 199.947 204.712C200.955 205.8 201.723 207.12 202.251 208.672C202.795 210.208 203.067 211.928 203.067 213.832C203.067 215.752 202.795 217.48 202.251 219.016C201.723 220.552 200.955 221.864 199.947 222.952C198.939 224.04 197.723 224.88 196.299 225.472C194.875 226.048 193.275 226.336 191.499 226.336C189.707 226.336 188.091 226.048 186.651 225.472C185.227 224.88 184.011 224.04 183.003 222.952C181.995 221.864 181.219 220.552 180.675 219.016C180.147 217.48 179.883 215.752 179.883 213.832C179.883 211.928 180.147 210.208 180.675 208.672C181.219 207.12 181.995 205.8 183.003 204.712C184.011 203.624 185.227 202.784 186.651 202.192C188.091 201.6 189.707 201.304 191.499 201.304ZM191.499 223C193.899 223 195.691 222.2 196.875 220.6C198.059 218.984 198.651 216.736 198.651 213.856C198.651 210.96 198.059 208.704 196.875 207.088C195.691 205.472 193.899 204.664 191.499 204.664C190.283 204.664 189.219 204.872 188.307 205.288C187.411 205.704 186.659 206.304 186.051 207.088C185.459 207.872 185.011 208.84 184.707 209.992C184.419 211.128 184.275 212.416 184.275 213.856C184.275 216.736 184.867 218.984 186.051 220.6C187.251 222.2 189.067 223 191.499 223ZM212.542 206.56C213.31 204.896 214.254 203.6 215.374 202.672C216.494 201.728 217.862 201.256 219.478 201.256C219.99 201.256 220.478 201.312 220.942 201.424C221.422 201.536 221.846 201.712 222.214 201.952L221.902 205.144C221.806 205.544 221.566 205.744 221.182 205.744C220.958 205.744 220.63 205.696 220.198 205.6C219.766 205.504 219.278 205.456 218.734 205.456C217.966 205.456 217.278 205.568 216.67 205.792C216.078 206.016 215.542 206.352 215.062 206.8C214.598 207.232 214.174 207.776 213.79 208.432C213.422 209.072 213.086 209.808 212.782 210.64V226H208.486V201.688H210.934C211.398 201.688 211.718 201.776 211.894 201.952C212.07 202.128 212.19 202.432 212.254 202.864L212.542 206.56ZM241.258 211.192C241.258 210.2 241.114 209.296 240.826 208.48C240.554 207.648 240.146 206.936 239.602 206.344C239.074 205.736 238.426 205.272 237.658 204.952C236.89 204.616 236.018 204.448 235.042 204.448C232.994 204.448 231.37 205.048 230.17 206.248C228.986 207.432 228.25 209.08 227.962 211.192H241.258ZM244.714 222.592C244.186 223.232 243.554 223.792 242.818 224.272C242.082 224.736 241.29 225.12 240.442 225.424C239.61 225.728 238.746 225.952 237.85 226.096C236.954 226.256 236.066 226.336 235.186 226.336C233.506 226.336 231.954 226.056 230.53 225.496C229.122 224.92 227.898 224.088 226.858 223C225.834 221.896 225.034 220.536 224.458 218.92C223.882 217.304 223.594 215.448 223.594 213.352C223.594 211.656 223.85 210.072 224.362 208.6C224.89 207.128 225.642 205.856 226.618 204.784C227.594 203.696 228.786 202.848 230.194 202.24C231.602 201.616 233.186 201.304 234.946 201.304C236.402 201.304 237.746 201.552 238.978 202.048C240.226 202.528 241.298 203.232 242.194 204.16C243.106 205.072 243.818 206.208 244.33 207.568C244.842 208.912 245.098 210.448 245.098 212.176C245.098 212.848 245.026 213.296 244.882 213.52C244.738 213.744 244.466 213.856 244.066 213.856H227.818C227.866 215.392 228.074 216.728 228.442 217.864C228.826 219 229.354 219.952 230.026 220.72C230.698 221.472 231.498 222.04 232.426 222.424C233.354 222.792 234.394 222.976 235.546 222.976C236.618 222.976 237.538 222.856 238.306 222.616C239.09 222.36 239.762 222.088 240.322 221.8C240.882 221.512 241.346 221.248 241.714 221.008C242.098 220.752 242.426 220.624 242.698 220.624C243.05 220.624 243.322 220.76 243.514 221.032L244.714 222.592Z" fill="white"/>
<defs>
<filter id="filter0_d_2_76" x="0.515137" y="0" width="379.97" height="390" filterUnits="userSpaceOnUse" color-interpolation-filters="sRGB">
<feFlood flood-opacity="0" result="BackgroundImageFix"/>
<feColorMatrix in="SourceAlpha" type="matrix" values="0 0 0 0 0 0 0 0 0 0 0 0 0 0 0 0 0 0 127 0" result="hardAlpha"/>
<feOffset dy="10"/>
<feGaussianBlur stdDeviation="5"/>
<feComposite in2="hardAlpha" operator="out"/>
<feColorMatrix type="matrix" values="0 0 0 0 0 0 0 0 0 0 0 0 0 0 0 0 0 0 0.25 0"/>
<feBlend mode="normal" in2="BackgroundImageFix" result="effect1_dropShadow_2_76"/>
<feBlend mode="normal" in="SourceGraphic" in2="effect1_dropShadow_2_76" result="shape"/>
</filter>
</defs>
</svg>
