<svg width="381" height="390" viewBox="0 0 381 390" fill="none" xmlns="http://www.w3.org/2000/svg">
<g filter="url(#filter0_d_2_77)">
<path d="M370.367 184.528C370.603 286.725 288.764 369.74 187.545 370C148.413 369.98 110.31 357.458 78.7852 334.257C47.2599 311.056 23.959 278.389 12.2759 241.013C7.79093 226.579 16.4304 215.688 27.0764 212.404C29.905 211.401 32.9099 210.994 35.9031 211.206C38.8964 211.419 41.8136 212.247 44.4723 213.64C47.1311 215.032 49.4741 216.959 51.3548 219.299C53.2356 221.639 54.6136 224.343 55.4026 227.24C64.1982 255.361 81.7327 279.937 105.453 297.393C129.174 314.848 157.842 324.27 187.285 324.288C263.506 324.099 325.116 261.66 324.927 184.741C324.738 107.821 262.774 45.6187 186.553 45.8313C157.134 45.9834 128.531 55.5317 104.912 73.0852C81.292 90.6388 63.889 115.281 55.2374 143.422C54.4781 146.424 53.1136 149.24 51.2277 151.695C49.3418 154.151 46.9744 156.195 44.2707 157.702C41.5669 159.208 38.584 160.146 35.5051 160.457C32.4261 160.768 29.3161 160.446 26.366 159.511C23.4158 158.576 20.6878 157.047 18.3494 155.019C16.0111 152.99 14.1117 150.504 12.7679 147.715C11.4241 144.925 10.6642 141.889 10.535 138.795C10.4057 135.701 10.9098 132.613 12.0163 129.72C23.5078 92.284 46.6561 59.5044 78.0814 36.1674C109.507 12.8304 147.563 0.158086 186.695 0.000726795C287.938 -0.282761 370.32 82.4013 370.485 184.599" fill="white"/>
</g>
<defs>
<filter id="filter0_d_2_77" x="0.515137" y="0" width="379.97" height="390" filterUnits="userSpaceOnUse" color-interpolation-filters="sRGB">
<feFlood flood-opacity="0" result="BackgroundImageFix"/>
<feColorMatrix in="SourceAlpha" type="matrix" values="0 0 0 0 0 0 0 0 0 0 0 0 0 0 0 0 0 0 127 0" result="hardAlpha"/>
<feOffset dy="10"/>
<feGaussianBlur stdDeviation="5"/>
<feComposite in2="hardAlpha" operator="out"/>
<feColorMatrix type="matrix" values="0 0 0 0 0 0 0 0 0 0 0 0 0 0 0 0 0 0 0.25 0"/>
<feBlend mode="normal" in2="BackgroundImageFix" result="effect1_dropShadow_2_77"/>
<feBlend mode="normal" in="SourceGraphic" in2="effect1_dropShadow_2_77" result="shape"/>
</filter>
</defs>
</svg>
