<svg width="265" height="168" viewBox="0 0 265 168" fill="none" xmlns="http://www.w3.org/2000/svg">
<path d="M225.549 225.107C173.918 276.978 90.3116 277.446 38.7677 226.166C18.9019 206.28 5.88928 180.585 1.6251 152.824C-2.63907 125.063 2.06792 96.6851 15.0605 71.8242C20.0917 62.2368 29.9948 61.1102 37.0651 64.8548C39.0096 65.7837 40.7424 67.1035 42.1551 68.7316C43.5678 70.3596 44.63 72.2608 45.2753 74.3164C45.9206 76.372 46.1351 78.5377 45.9054 80.678C45.6757 82.8183 45.0066 84.8872 43.9402 86.7552C34.168 105.463 30.6289 126.814 33.8383 147.702C37.0477 168.589 46.838 187.922 61.7839 202.886C100.595 241.505 163.506 241.181 202.361 202.134C241.216 163.087 241.241 100.115 202.418 61.5079C187.398 46.642 168.035 36.9489 147.149 33.8407C126.263 30.7324 104.945 34.3712 86.3005 44.2271C84.3944 45.3618 82.2757 46.0944 80.0743 46.38C77.873 46.6655 75.6355 46.498 73.4992 45.8877C71.3629 45.2773 69.373 44.2371 67.6515 42.8308C65.93 41.4244 64.5134 39.6818 63.4885 37.7097C62.4636 35.7376 61.8522 33.5778 61.6917 31.3629C61.5312 29.1479 61.8251 26.9245 62.5552 24.8292C63.2854 22.7339 64.4365 20.8109 65.9378 19.1783C67.4391 17.5457 69.2589 16.238 71.2855 15.3353C96.0796 2.21511 124.436 -2.62626 152.216 1.51812C179.995 5.6625 205.742 18.5756 225.698 38.372C277.266 89.6527 277.24 173.367 225.573 225.202" fill="#FFCB05"/>
</svg>
