<svg width="269" height="269" viewBox="0 0 269 269" fill="none" xmlns="http://www.w3.org/2000/svg">
<path d="M229.389 228.94C177.041 281.532 92.2737 282.007 40.0141 230.014C19.8724 209.852 6.67911 183.8 2.35572 155.654C-1.96766 127.507 2.80469 98.7358 15.9777 73.5296C21.0788 63.8091 31.1194 62.6669 38.2878 66.4635C40.2593 67.4053 42.0161 68.7434 43.4485 70.394C44.8808 72.0447 45.9578 73.9723 46.612 76.0565C47.2663 78.1406 47.4838 80.3364 47.2509 82.5064C47.0179 84.6764 46.3396 86.774 45.2584 88.668C35.3504 107.635 31.7623 129.283 35.0162 150.461C38.2702 171.638 48.1965 191.239 63.3499 206.411C102.7 245.567 166.484 245.238 205.879 205.649C245.274 166.059 245.299 102.214 205.937 63.0701C190.708 47.9977 171.076 38.1701 149.9 35.0187C128.724 31.8673 107.11 35.5566 88.2068 45.5494C86.2743 46.6998 84.1261 47.4426 81.8942 47.7321C79.6623 48.0217 77.3937 47.8518 75.2278 47.233C73.0619 46.6142 71.0443 45.5595 69.2989 44.1336C67.5535 42.7078 66.1172 40.9409 65.0781 38.9415C64.039 36.942 63.419 34.7522 63.2563 32.5065C63.0936 30.2607 63.3916 28.0065 64.1319 25.8821C64.8722 23.7577 66.0392 21.808 67.5614 20.1528C69.0835 18.4975 70.9286 17.1716 72.9834 16.2564C98.1217 2.95402 126.872 -1.95457 155.037 2.24736C183.203 6.44928 209.307 19.5416 229.54 39.6129C281.824 91.6057 281.798 176.483 229.413 229.037" fill="#FFCB05"/>
</svg>
